<svg width="80" height="80" viewBox="0 0 80 80" fill="none" xmlns="http://www.w3.org/2000/svg">
<circle cx="40" cy="40" r="40" fill="#E763F3" fill-opacity="0.21"/>
<path d="M48.7997 30.625H54.1757C54.5009 30.6253 54.8143 30.7521 55.0553 30.9807C55.2964 31.2094 55.4478 31.5236 55.4803 31.8625L56.281 40.25H53.6402L52.9839 33.375H48.7997V37.5C48.7997 37.8647 48.6614 38.2144 48.4153 38.4723C48.1691 38.7301 47.8353 38.875 47.4872 38.875C47.1391 38.875 46.8053 38.7301 46.5591 38.4723C46.313 38.2144 46.1747 37.8647 46.1747 37.5V33.375H35.6747V37.5C35.6747 37.8647 35.5364 38.2144 35.2903 38.4723C35.0441 38.7301 34.7103 38.875 34.3622 38.875C34.0141 38.875 33.6803 38.7301 33.4341 38.4723C33.188 38.2144 33.0497 37.8647 33.0497 37.5V33.375H28.8628L26.7628 55.375H40.9247V58.125H25.3112C25.1279 58.1248 24.9466 58.0844 24.7791 58.0063C24.6116 57.9283 24.4616 57.8144 24.3387 57.6719C24.2158 57.5294 24.1227 57.3615 24.0655 57.179C24.0083 56.9966 23.9882 56.8036 24.0066 56.6125L26.3691 31.8625C26.4016 31.5236 26.553 31.2094 26.7941 30.9807C27.0351 30.7521 27.3486 30.6253 27.6737 30.625H33.0497V29.6652C33.0497 24.8968 36.5567 21 40.9247 21C45.2927 21 48.7997 24.8968 48.7997 29.6652V30.6277V30.625ZM46.1747 30.625V29.6652C46.1747 26.3818 43.807 23.75 40.9247 23.75C38.0425 23.75 35.6747 26.3818 35.6747 29.6652V30.6277H46.1747V30.625ZM54.4356 51.415L51.4247 48.2635V58.125C51.4247 58.4897 51.2864 58.8394 51.0403 59.0973C50.7941 59.3551 50.4603 59.5 50.1122 59.5C49.7641 59.5 49.4303 59.3551 49.1841 59.0973C48.938 58.8394 48.7997 58.4897 48.7997 58.125V48.2635L45.7915 51.415C45.6704 51.5463 45.5255 51.6511 45.3654 51.7231C45.2053 51.7952 45.0331 51.8331 44.8588 51.8347C44.6845 51.8363 44.5117 51.8015 44.3504 51.7324C44.1891 51.6632 44.0425 51.5611 43.9193 51.432C43.7961 51.3029 43.6986 51.1494 43.6326 50.9804C43.5666 50.8115 43.5334 50.6304 43.5349 50.4478C43.5365 50.2653 43.5727 50.0848 43.6414 49.9171C43.7102 49.7493 43.8102 49.5976 43.9356 49.4707L49.1856 43.9707C49.4317 43.713 49.7655 43.5682 50.1135 43.5682C50.4615 43.5682 50.7953 43.713 51.0415 43.9707L56.2915 49.4707C56.4168 49.5976 56.5168 49.7493 56.5856 49.9171C56.6544 50.0848 56.6906 50.2653 56.6921 50.4478C56.6936 50.6304 56.6604 50.8115 56.5944 50.9804C56.5284 51.1494 56.431 51.3029 56.3077 51.432C56.1845 51.5611 56.0379 51.6632 55.8766 51.7324C55.7153 51.8015 55.5425 51.8363 55.3682 51.8347C55.194 51.8331 55.0217 51.7952 54.8616 51.7231C54.7015 51.6511 54.5567 51.5463 54.4356 51.415Z" fill="url(#paint0_linear_0_1)"/>
<defs>
<linearGradient id="paint0_linear_0_1" x1="40.3461" y1="21" x2="40.3461" y2="59.5" gradientUnits="userSpaceOnUse">
<stop stop-color="#E763F3"/>
<stop offset="1" stop-color="#EBA235"/>
</linearGradient>
</defs>
</svg>
