<svg width="36" height="36" viewBox="0 0 36 36" fill="none" xmlns="http://www.w3.org/2000/svg">
<path fill-rule="evenodd" clip-rule="evenodd" d="M16.568 0.737758C17.3943 0.679972 18.1112 1.30307 18.1689 2.12947L18.5038 6.91778C18.5616 7.74418 17.9384 8.46097 17.1121 8.51876C16.2857 8.57654 15.5689 7.95345 15.5111 7.12705L15.1763 2.33874C15.1185 1.51234 15.7416 0.795544 16.568 0.737758ZM29.2698 4.98772C29.895 5.53121 29.9613 6.47863 29.4177 7.10387L26.2686 10.7265C25.7251 11.3517 24.7778 11.4179 24.1525 10.8744C23.5273 10.3309 23.4611 9.38352 24.0046 8.75828L27.1535 5.1357C27.697 4.51046 28.6445 4.44421 29.2698 4.98772ZM4.58088 6.71447C5.12439 6.08926 6.07182 6.02301 6.69703 6.5665L10.3196 9.71559C10.9449 10.2591 11.0111 11.2065 10.4676 11.8317C9.92413 12.457 8.97669 12.5232 8.35147 11.9797L4.72886 8.83063C4.10364 8.28714 4.03739 7.33971 4.58088 6.71447ZM0.331334 19.4159C0.273548 18.5895 0.896643 17.8727 1.72305 17.8149L6.51135 17.4801C7.33775 17.4223 8.05455 18.0454 8.11233 18.8718C8.17012 19.6981 7.54702 20.415 6.72062 20.4727L1.93231 20.8076C1.10591 20.8654 0.38912 20.2422 0.331334 19.4159ZM27.4651 17.5185C27.4073 16.6921 28.0304 15.9753 28.8568 15.9175L33.6451 15.5827C34.4715 15.5249 35.1883 16.148 35.2461 16.9744C35.3039 17.8008 34.6807 18.5176 33.8544 18.5754L29.0661 18.9102C28.2397 18.968 27.5229 18.3449 27.4651 17.5185ZM11.4249 25.5159C12.0502 26.0594 12.1164 27.0067 11.5729 27.6319L8.42384 31.2546C7.88033 31.8798 6.9329 31.9461 6.30768 31.4026C5.68245 30.8591 5.61619 29.9116 6.1597 29.2863L9.30878 25.6639C9.85227 25.0386 10.7997 24.9724 11.4249 25.5159ZM25.1091 24.5592C25.6524 23.9342 26.5999 23.8679 27.2251 24.4112L30.8478 27.5604C31.473 28.1039 31.5393 29.0514 30.9958 29.6766C30.4523 30.3019 29.5048 30.3681 28.8796 29.8246L25.2571 26.6754C24.6318 26.1319 24.5656 25.1844 25.1091 24.5592ZM18.4653 27.8715C19.2917 27.8137 20.0085 28.4368 20.0663 29.2632L20.4012 34.0515C20.4589 34.8779 19.8358 35.5947 19.0094 35.6525C18.1831 35.7103 17.4662 35.0872 17.4085 34.2608L17.0736 29.4725C17.0158 28.6461 17.639 27.9293 18.4653 27.8715Z" fill="url(#paint0_linear_17_1270)"/>
<defs>
<linearGradient id="paint0_linear_17_1270" x1="16.568" y1="0.737758" x2="19.0094" y2="35.6525" gradientUnits="userSpaceOnUse">
<stop stop-color="#E763F3"/>
<stop offset="1" stop-color="#EBA235"/>
</linearGradient>
</defs>
</svg>
