<svg width="279" height="269" viewBox="0 0 279 269" fill="none" xmlns="http://www.w3.org/2000/svg">
<g filter="url(#filter0_d_17_1338)">
<mask id="path-1-inside-1_17_1338" fill="white">
<path d="M59.6396 59.7998H219.64V132.3C219.64 175.102 184.942 209.8 142.14 209.8H137.14C94.3376 209.8 59.6396 175.102 59.6396 132.3V59.7998Z"/>
</mask>
<path d="M59.6396 59.7998H219.64V132.3C219.64 175.102 184.942 209.8 142.14 209.8H137.14C94.3376 209.8 59.6396 175.102 59.6396 132.3V59.7998Z" fill="white" shape-rendering="crispEdges"/>
<path d="M59.6396 54.7998H219.64V64.7998H59.6396V54.7998ZM219.64 209.8H59.6396H219.64ZM59.6396 209.8V59.7998V209.8ZM219.64 59.7998V209.8V59.7998Z" fill="url(#paint0_linear_17_1338)" mask="url(#path-1-inside-1_17_1338)"/>
<g clip-path="url(#clip0_17_1338)">
<path d="M160.321 113.25C158.877 112.961 157.505 113.178 156.205 113.9C154.905 114.622 154.038 115.741 153.605 117.258C153.171 118.775 153.352 120.183 154.146 121.483C154.941 122.783 156.06 123.65 157.505 124.083C157.938 124.228 158.371 124.3 158.805 124.3C159.816 124.3 160.755 124.011 161.621 123.433C162.921 122.711 163.788 121.591 164.221 120.075C164.655 118.558 164.474 117.15 163.68 115.85C162.885 114.55 161.766 113.683 160.321 113.25ZM160.755 121.7C159.888 122.278 158.949 122.422 157.938 122.133C156.927 121.844 156.205 121.266 155.771 120.4C155.338 119.533 155.23 118.63 155.446 117.691C155.663 116.753 156.205 116.066 157.071 115.633C157.649 115.2 158.227 114.983 158.805 114.983L159.888 115.2C160.755 115.489 161.441 116.066 161.946 116.933C162.452 117.8 162.596 118.703 162.38 119.641C162.163 120.58 161.621 121.266 160.755 121.7ZM171.371 121.483L169.421 119.966C169.566 118.955 169.566 117.944 169.421 116.933L171.155 115.416C171.444 115.128 171.66 114.73 171.805 114.225C171.949 113.719 171.877 113.322 171.588 113.033L170.071 110.216C169.782 109.783 169.421 109.494 168.988 109.35C168.555 109.205 168.121 109.205 167.688 109.35L165.305 110.216C164.582 109.494 163.716 108.989 162.705 108.7L162.271 106.533C162.127 105.955 161.874 105.522 161.513 105.233C161.152 104.944 160.755 104.8 160.321 104.8H157.288C156.71 104.8 156.241 104.944 155.88 105.233C155.519 105.522 155.266 105.955 155.121 106.533L154.688 108.7C153.821 109.133 152.955 109.711 152.088 110.433L150.138 109.566C149.56 109.422 149.055 109.458 148.621 109.675C148.188 109.891 147.827 110.216 147.538 110.65L146.021 113.25C145.877 113.683 145.841 114.116 145.913 114.55C145.985 114.983 146.166 115.416 146.455 115.85L148.188 117.366C148.044 118.378 148.116 119.389 148.405 120.4L146.671 121.916C146.238 122.205 145.985 122.603 145.913 123.108C145.841 123.614 145.949 124.083 146.238 124.516L147.755 127.116C148.044 127.55 148.405 127.839 148.838 127.983C149.271 128.128 149.705 128.128 150.138 127.983L152.305 127.116C153.171 127.839 154.11 128.344 155.121 128.633L155.555 130.8C155.555 131.378 155.771 131.811 156.205 132.1C156.638 132.389 157.071 132.533 157.505 132.533H160.538C160.971 132.533 161.405 132.389 161.838 132.1C162.271 131.811 162.488 131.378 162.488 130.8L162.921 128.633C163.932 128.2 164.871 127.622 165.738 126.9L167.688 127.766C168.121 127.911 168.591 127.875 169.096 127.658C169.602 127.441 169.927 127.189 170.071 126.9L171.805 124.083C171.949 123.65 171.985 123.216 171.913 122.783C171.841 122.35 171.66 121.916 171.371 121.483ZM170.071 123.216L168.555 125.816H168.338L165.738 124.95C165.449 124.805 165.16 124.878 164.871 125.166C164.005 126.033 162.994 126.611 161.838 126.9C161.549 127.044 161.332 127.333 161.188 127.766L160.755 130.583H160.538H157.505H157.288L156.855 127.766C156.855 127.478 156.638 127.261 156.205 127.116C155.049 126.683 154.038 126.105 153.171 125.383C152.882 125.239 152.594 125.166 152.305 125.166L149.488 126.25L147.971 123.433C147.827 123.433 147.827 123.361 147.971 123.216L149.921 121.483C150.21 121.194 150.355 120.905 150.355 120.616C150.066 119.461 149.994 118.305 150.138 117.15C150.282 116.716 150.21 116.428 149.921 116.283L147.755 114.333C147.755 114.333 147.755 114.261 147.755 114.116L149.271 111.516H149.488L152.088 112.383C152.377 112.528 152.666 112.455 152.955 112.166C153.821 111.3 154.832 110.722 155.988 110.433C156.277 110.289 156.494 110 156.638 109.566L157.071 106.75H157.288H160.321L160.971 109.566C160.971 109.855 161.188 110.072 161.621 110.216C162.777 110.65 163.788 111.228 164.655 111.95C164.944 112.239 165.232 112.311 165.521 112.166L168.338 111.083V111.3L169.855 113.9C169.999 113.9 169.999 113.972 169.855 114.116L167.905 115.85C167.616 116.139 167.471 116.428 167.471 116.716C167.76 117.872 167.76 119.028 167.471 120.183C167.471 120.616 167.616 120.905 167.905 121.05L170.071 123C170.071 123 170.071 123.072 170.071 123.216ZM120.888 139.033C120.888 138.166 120.563 137.444 119.913 136.866C119.263 136.289 118.505 136 117.638 136H117.205V131.233C117.205 130.655 117.024 130.33 116.663 130.258C116.302 130.186 115.941 130.258 115.58 130.475C115.219 130.691 115.11 131.016 115.255 131.45V136H112.438V119.533C112.438 119.389 112.438 119.244 112.438 119.1L110.055 115.2V110.216H117.638V115.2L115.471 119.1C115.327 119.244 115.255 119.389 115.255 119.533V125.816C115.11 126.25 115.219 126.575 115.58 126.791C115.941 127.008 116.302 127.044 116.663 126.9C117.024 126.755 117.205 126.466 117.205 126.033V119.75L119.371 115.85C119.516 115.705 119.588 115.561 119.588 115.416V105.666C119.588 105.522 119.48 105.341 119.263 105.125C119.046 104.908 118.794 104.8 118.505 104.8H109.188C108.899 104.8 108.682 104.908 108.538 105.125C108.394 105.341 108.321 105.594 108.321 105.883V115.416C108.321 115.561 108.321 115.778 108.321 116.066L110.705 119.75V136H110.055C108.899 136 108.069 136.469 107.563 137.408C107.057 138.347 106.985 139.358 107.346 140.441C107.707 141.525 108.466 142.139 109.621 142.283V161.35C109.621 162.65 110.055 163.697 110.921 164.491C111.788 165.286 112.799 165.683 113.955 165.683C115.11 165.683 116.121 165.286 116.988 164.491C117.855 163.697 118.288 162.65 118.288 161.35V142.283C119.01 142.139 119.624 141.778 120.13 141.2C120.635 140.622 120.888 139.9 120.888 139.033ZM110.055 108.266V106.75H117.638V108.266H110.055ZM113.955 163.733C113.232 163.733 112.619 163.48 112.113 162.975C111.607 162.469 111.355 161.928 111.355 161.35L111.571 142.283H116.338V161.35C116.338 161.928 116.085 162.469 115.58 162.975C115.074 163.48 114.532 163.733 113.955 163.733ZM117.638 140.333H110.055C109.621 140.333 109.296 140.116 109.08 139.683C108.863 139.25 108.863 138.816 109.08 138.383C109.296 137.95 109.621 137.733 110.055 137.733H117.638C118.216 137.733 118.577 137.95 118.721 138.383C118.866 138.816 118.866 139.25 118.721 139.683C118.577 140.116 118.216 140.333 117.638 140.333ZM167.905 158.75V154.633C167.905 151.166 167.182 147.88 165.738 144.775C164.294 141.669 162.199 139.033 159.455 136.866C159.166 136.578 158.805 136.433 158.371 136.433C157.938 136.433 157.577 136.578 157.288 136.866C155.266 135.422 153.027 134.339 150.571 133.616C150.716 132.894 150.571 132.461 150.138 132.316C148.549 131.45 146.924 131.016 145.263 131.016C143.602 131.016 141.977 131.45 140.388 132.316C139.955 132.461 139.81 132.894 139.955 133.616C138.799 133.905 137.716 134.339 136.705 134.916V123.65C140.605 122.639 142.627 120.183 142.771 116.283C142.771 114.261 142.194 112.166 141.038 110C139.882 107.833 138.51 106.172 136.921 105.016C136.055 104.728 135.549 105.016 135.405 105.883V113.683C135.26 114.116 134.971 114.333 134.538 114.333H130.638C130.494 114.333 130.349 114.261 130.205 114.116C130.06 113.972 129.988 113.828 129.988 113.683V105.666C129.844 104.944 129.338 104.728 128.471 105.016C126.738 106.028 125.33 107.616 124.246 109.783C123.163 111.95 122.621 114.116 122.621 116.283C122.621 120.183 124.571 122.639 128.471 123.65V139.466C126.449 141.489 124.932 143.8 123.921 146.4C122.91 149 122.405 151.744 122.405 154.633V158.75C121.249 159.183 120.527 159.941 120.238 161.025C119.949 162.108 120.094 163.155 120.671 164.166C121.249 165.178 122.188 165.683 123.488 165.683C126.088 165.683 128.688 166.369 131.288 167.741C133.888 169.114 136.56 169.8 139.305 169.8H151.005C153.894 169.8 156.638 169.114 159.238 167.741C161.838 166.369 164.438 165.683 167.038 165.683C168.338 165.683 169.277 165.178 169.855 164.166C170.432 163.155 170.577 162.108 170.288 161.025C169.999 159.941 169.205 159.183 167.905 158.75ZM156.638 138.6V149.65C156.638 149.939 156.71 150.191 156.855 150.408C156.999 150.625 157.216 150.733 157.505 150.733C157.794 150.733 158.01 150.625 158.155 150.408C158.299 150.191 158.371 149.939 158.371 149.65V138.6C160.827 140.622 162.741 143.005 164.113 145.75C165.485 148.494 166.171 151.455 166.171 154.633V158.533H158.588L158.371 154.85C158.371 154.561 158.299 154.308 158.155 154.091C158.01 153.875 157.794 153.766 157.505 153.766C157.216 153.766 156.999 153.875 156.855 154.091C156.71 154.308 156.638 154.561 156.638 154.85V158.533H150.571V135.783C152.738 136.361 154.76 137.3 156.638 138.6ZM148.621 133.616V158.533H141.688V133.616C143.999 132.605 146.31 132.605 148.621 133.616ZM139.955 158.533H133.888V138.6C135.766 137.3 137.788 136.361 139.955 135.783V158.533ZM124.571 116.283C124.571 114.839 124.896 113.322 125.546 111.733C126.196 110.144 127.027 108.844 128.038 107.833V113.683C128.038 114.405 128.291 115.019 128.796 115.525C129.302 116.03 129.916 116.283 130.638 116.283H134.538C135.26 116.283 135.874 116.03 136.38 115.525C136.885 115.019 137.138 114.405 137.138 113.683V107.833C138.294 108.989 139.196 110.325 139.846 111.841C140.496 113.358 140.821 114.839 140.821 116.283C140.821 119.461 139.088 121.339 135.621 121.916C135.044 122.061 134.755 122.35 134.755 122.783V135.783L133.021 136.866C132.732 136.578 132.407 136.469 132.046 136.541C131.685 136.614 131.36 136.722 131.071 136.866L130.205 137.516L130.421 122.783C130.421 122.35 130.132 122.061 129.555 121.916C126.232 121.194 124.571 119.316 124.571 116.283ZM131.938 138.6V158.533H124.355V154.633C124.355 151.455 125.041 148.494 126.413 145.75C127.785 143.005 129.627 140.622 131.938 138.6ZM168.121 163.3C167.832 163.589 167.471 163.733 167.038 163.733C164.149 163.733 161.188 164.528 158.155 166.116C155.988 167.272 153.605 167.85 151.005 167.85H139.305C136.849 167.85 134.466 167.272 132.155 166.116C128.977 164.383 126.088 163.589 123.488 163.733C122.766 163.733 122.296 163.48 122.08 162.975C121.863 162.469 121.899 161.928 122.188 161.35C122.477 160.772 122.91 160.483 123.488 160.483H166.821C167.544 160.483 168.085 160.808 168.446 161.458C168.807 162.108 168.699 162.722 168.121 163.3Z" fill="black"/>
</g>
</g>
<defs>
<filter id="filter0_d_17_1338" x="0.639648" y="0.799805" width="278" height="268" filterUnits="userSpaceOnUse" color-interpolation-filters="sRGB">
<feFlood flood-opacity="0" result="BackgroundImageFix"/>
<feColorMatrix in="SourceAlpha" type="matrix" values="0 0 0 0 0 0 0 0 0 0 0 0 0 0 0 0 0 0 127 0" result="hardAlpha"/>
<feOffset/>
<feGaussianBlur stdDeviation="29.5"/>
<feComposite in2="hardAlpha" operator="out"/>
<feColorMatrix type="matrix" values="0 0 0 0 0.768627 0 0 0 0 0.768627 0 0 0 0 0.768627 0 0 0 0.26 0"/>
<feBlend mode="normal" in2="BackgroundImageFix" result="effect1_dropShadow_17_1338"/>
<feBlend mode="normal" in="SourceGraphic" in2="effect1_dropShadow_17_1338" result="shape"/>
</filter>
<linearGradient id="paint0_linear_17_1338" x1="60" y1="59.9998" x2="220" y2="65.4998" gradientUnits="userSpaceOnUse">
<stop stop-color="#E763F3"/>
<stop offset="1" stop-color="#EBA235"/>
</linearGradient>
<clipPath id="clip0_17_1338">
<rect width="65.02" height="65" fill="white" transform="matrix(1 0 0 -1 107.12 169.8)"/>
</clipPath>
</defs>
</svg>
