<svg width="278" height="268" viewBox="0 0 278 268" fill="none" xmlns="http://www.w3.org/2000/svg">
<g filter="url(#filter0_d_17_1344)">
<mask id="path-1-inside-1_17_1344" fill="white">
<path d="M219 209L59 209L59 136.5C59 93.6979 93.6979 59 136.5 59H141.5C184.302 59 219 93.6979 219 136.5L219 209Z"/>
</mask>
<path d="M219 209L59 209L59 136.5C59 93.6979 93.6979 59 136.5 59H141.5C184.302 59 219 93.6979 219 136.5L219 209Z" fill="white" shape-rendering="crispEdges"/>
<path d="M219 214L59 214V204L219 204V214ZM59 59L219 59L59 59ZM219 59L219 209L219 59ZM59 209L59 59L59 209Z" fill="url(#paint0_linear_17_1344)" mask="url(#path-1-inside-1_17_1344)"/>
<g clip-path="url(#clip0_17_1344)">
<path d="M159.702 107.45C158.257 107.161 156.885 107.378 155.585 108.1C154.285 108.822 153.418 109.942 152.985 111.458C152.552 112.975 152.732 114.383 153.527 115.683C154.321 116.983 155.441 117.85 156.885 118.283C157.318 118.428 157.752 118.5 158.185 118.5C159.196 118.5 160.135 118.211 161.002 117.633C162.302 116.911 163.168 115.792 163.602 114.275C164.035 112.758 163.854 111.35 163.06 110.05C162.266 108.75 161.146 107.883 159.702 107.45ZM160.135 115.9C159.268 116.478 158.329 116.622 157.318 116.333C156.307 116.044 155.585 115.467 155.152 114.6C154.718 113.733 154.61 112.831 154.827 111.892C155.043 110.953 155.585 110.267 156.452 109.833C157.029 109.4 157.607 109.183 158.185 109.183L159.268 109.4C160.135 109.689 160.821 110.267 161.327 111.133C161.832 112 161.977 112.903 161.76 113.842C161.543 114.781 161.002 115.467 160.135 115.9ZM170.752 115.683L168.802 114.167C168.946 113.156 168.946 112.144 168.802 111.133L170.535 109.617C170.824 109.328 171.041 108.931 171.185 108.425C171.329 107.919 171.257 107.522 170.968 107.233L169.452 104.417C169.163 103.983 168.802 103.694 168.368 103.55C167.935 103.406 167.502 103.406 167.068 103.55L164.685 104.417C163.963 103.694 163.096 103.189 162.085 102.9L161.652 100.733C161.507 100.156 161.254 99.7222 160.893 99.4333C160.532 99.1444 160.135 99 159.702 99H156.668C156.091 99 155.621 99.1444 155.26 99.4333C154.899 99.7222 154.646 100.156 154.502 100.733L154.068 102.9C153.202 103.333 152.335 103.911 151.468 104.633L149.518 103.767C148.941 103.622 148.435 103.658 148.002 103.875C147.568 104.092 147.207 104.417 146.918 104.85L145.402 107.45C145.257 107.883 145.221 108.317 145.293 108.75C145.366 109.183 145.546 109.617 145.835 110.05L147.568 111.567C147.424 112.578 147.496 113.589 147.785 114.6L146.052 116.117C145.618 116.406 145.366 116.803 145.293 117.308C145.221 117.814 145.329 118.283 145.618 118.717L147.135 121.317C147.424 121.75 147.785 122.039 148.218 122.183C148.652 122.328 149.085 122.328 149.518 122.183L151.685 121.317C152.552 122.039 153.491 122.544 154.502 122.833L154.935 125C154.935 125.578 155.152 126.011 155.585 126.3C156.018 126.589 156.452 126.733 156.885 126.733L159.918 126.733C160.352 126.733 160.785 126.589 161.218 126.3C161.652 126.011 161.868 125.578 161.868 125L162.302 122.833C163.313 122.4 164.252 121.822 165.118 121.1L167.068 121.967C167.502 122.111 167.971 122.075 168.477 121.858C168.982 121.642 169.307 121.389 169.452 121.1L171.185 118.283C171.329 117.85 171.366 117.417 171.293 116.983C171.221 116.55 171.041 116.117 170.752 115.683ZM169.452 117.417L167.935 120.017H167.718L165.118 119.15C164.829 119.006 164.541 119.078 164.252 119.367C163.385 120.233 162.374 120.811 161.218 121.1C160.929 121.244 160.713 121.533 160.568 121.967L160.135 124.783H159.918L156.885 124.783H156.668L156.235 121.967C156.235 121.678 156.018 121.461 155.585 121.317C154.429 120.883 153.418 120.306 152.552 119.583C152.263 119.439 151.974 119.367 151.685 119.367L148.868 120.45L147.352 117.633C147.207 117.633 147.207 117.561 147.352 117.417L149.302 115.683C149.591 115.394 149.735 115.106 149.735 114.817C149.446 113.661 149.374 112.506 149.518 111.35C149.663 110.917 149.591 110.628 149.302 110.483L147.135 108.533C147.135 108.533 147.135 108.461 147.135 108.317L148.652 105.717H148.868L151.468 106.583C151.757 106.728 152.046 106.656 152.335 106.367C153.202 105.5 154.213 104.922 155.368 104.633C155.657 104.489 155.874 104.2 156.018 103.767L156.452 100.95H156.668L159.702 100.95L160.352 103.767C160.352 104.056 160.568 104.272 161.002 104.417C162.157 104.85 163.168 105.428 164.035 106.15C164.324 106.439 164.613 106.511 164.902 106.367L167.718 105.283V105.5L169.235 108.1C169.379 108.1 169.379 108.172 169.235 108.317L167.285 110.05C166.996 110.339 166.852 110.628 166.852 110.917C167.141 112.072 167.141 113.228 166.852 114.383C166.852 114.817 166.996 115.106 167.285 115.25L169.452 117.2C169.452 117.2 169.452 117.272 169.452 117.417ZM120.268 133.233C120.268 132.367 119.943 131.644 119.293 131.067C118.643 130.489 117.885 130.2 117.018 130.2H116.585L116.585 125.433C116.585 124.856 116.404 124.531 116.043 124.458C115.682 124.386 115.321 124.458 114.96 124.675C114.599 124.892 114.491 125.217 114.635 125.65L114.635 130.2H111.818L111.818 113.733C111.818 113.589 111.818 113.444 111.818 113.3L109.435 109.4V104.417H117.018V109.4L114.852 113.3C114.707 113.444 114.635 113.589 114.635 113.733V120.017C114.491 120.45 114.599 120.775 114.96 120.992C115.321 121.208 115.682 121.244 116.043 121.1C116.404 120.956 116.585 120.667 116.585 120.233V113.95L118.752 110.05C118.896 109.906 118.968 109.761 118.968 109.617V99.8667C118.968 99.7222 118.86 99.5417 118.643 99.325C118.427 99.1083 118.174 99 117.885 99H108.568C108.279 99 108.063 99.1083 107.918 99.325C107.774 99.5417 107.702 99.7944 107.702 100.083V109.617C107.702 109.761 107.702 109.978 107.702 110.267L110.085 113.95L110.085 130.2H109.435C108.279 130.2 107.449 130.669 106.943 131.608C106.438 132.547 106.366 133.558 106.727 134.642C107.088 135.725 107.846 136.339 109.002 136.483V155.55C109.002 156.85 109.435 157.897 110.302 158.692C111.168 159.486 112.179 159.883 113.335 159.883C114.491 159.883 115.502 159.486 116.368 158.692C117.235 157.897 117.668 156.85 117.668 155.55V136.483C118.391 136.339 119.004 135.978 119.51 135.4C120.016 134.822 120.268 134.1 120.268 133.233ZM109.435 102.467V100.95H117.018V102.467H109.435ZM113.335 157.933C112.613 157.933 111.999 157.681 111.493 157.175C110.988 156.669 110.735 156.128 110.735 155.55L110.952 136.483H115.718V155.55C115.718 156.128 115.466 156.669 114.96 157.175C114.454 157.681 113.913 157.933 113.335 157.933ZM117.018 134.533H109.435C109.002 134.533 108.677 134.317 108.46 133.883C108.243 133.45 108.243 133.017 108.46 132.583C108.677 132.15 109.002 131.933 109.435 131.933H117.018C117.596 131.933 117.957 132.15 118.102 132.583C118.246 133.017 118.246 133.45 118.102 133.883C117.957 134.317 117.596 134.533 117.018 134.533ZM167.285 152.95V148.833C167.285 145.367 166.563 142.081 165.118 138.975C163.674 135.869 161.579 133.233 158.835 131.067C158.546 130.778 158.185 130.633 157.752 130.633C157.318 130.633 156.957 130.778 156.668 131.067C154.646 129.622 152.407 128.539 149.952 127.817C150.096 127.094 149.952 126.661 149.518 126.517C147.929 125.65 146.304 125.217 144.643 125.217C142.982 125.217 141.357 125.65 139.768 126.517C139.335 126.661 139.191 127.094 139.335 127.817C138.179 128.106 137.096 128.539 136.085 129.117V117.85C139.985 116.839 142.007 114.383 142.152 110.483C142.152 108.461 141.574 106.367 140.418 104.2C139.263 102.033 137.891 100.372 136.302 99.2167C135.435 98.9278 134.929 99.2167 134.785 100.083V107.883C134.641 108.317 134.352 108.533 133.918 108.533H130.018C129.874 108.533 129.729 108.461 129.585 108.317C129.441 108.172 129.368 108.028 129.368 107.883V99.8667C129.224 99.1444 128.718 98.9278 127.852 99.2167C126.118 100.228 124.71 101.817 123.627 103.983C122.543 106.15 122.002 108.317 122.002 110.483C122.002 114.383 123.952 116.839 127.852 117.85L127.852 133.667C125.829 135.689 124.313 138 123.302 140.6C122.291 143.2 121.785 145.944 121.785 148.833V152.95C120.629 153.383 119.907 154.142 119.618 155.225C119.329 156.308 119.474 157.356 120.052 158.367C120.629 159.378 121.568 159.883 122.868 159.883C125.468 159.883 128.068 160.569 130.668 161.942C133.268 163.314 135.941 164 138.685 164H150.385C153.274 164 156.018 163.314 158.618 161.942C161.218 160.569 163.818 159.883 166.418 159.883C167.718 159.883 168.657 159.378 169.235 158.367C169.813 157.356 169.957 156.308 169.668 155.225C169.379 154.142 168.585 153.383 167.285 152.95ZM156.018 132.8V143.85C156.018 144.139 156.091 144.392 156.235 144.608C156.379 144.825 156.596 144.933 156.885 144.933C157.174 144.933 157.391 144.825 157.535 144.608C157.679 144.392 157.752 144.139 157.752 143.85V132.8C160.207 134.822 162.121 137.206 163.493 139.95C164.866 142.694 165.552 145.656 165.552 148.833V152.733H157.968L157.752 149.05C157.752 148.761 157.679 148.508 157.535 148.292C157.391 148.075 157.174 147.967 156.885 147.967C156.596 147.967 156.379 148.075 156.235 148.292C156.091 148.508 156.018 148.761 156.018 149.05V152.733H149.952V129.983C152.118 130.561 154.141 131.5 156.018 132.8ZM148.002 127.817V152.733H141.068V127.817C143.379 126.806 145.691 126.806 148.002 127.817ZM139.335 152.733H133.268V132.8C135.146 131.5 137.168 130.561 139.335 129.983V152.733ZM123.952 110.483C123.952 109.039 124.277 107.522 124.927 105.933C125.577 104.344 126.407 103.044 127.418 102.033V107.883C127.418 108.606 127.671 109.219 128.177 109.725C128.682 110.231 129.296 110.483 130.018 110.483H133.918C134.641 110.483 135.254 110.231 135.76 109.725C136.266 109.219 136.518 108.606 136.518 107.883V102.033C137.674 103.189 138.577 104.525 139.227 106.042C139.877 107.558 140.202 109.039 140.202 110.483C140.202 113.661 138.468 115.539 135.002 116.117C134.424 116.261 134.135 116.55 134.135 116.983V129.983L132.402 131.067C132.113 130.778 131.788 130.669 131.427 130.742C131.066 130.814 130.741 130.922 130.452 131.067L129.585 131.717L129.802 116.983C129.802 116.55 129.513 116.261 128.935 116.117C125.613 115.394 123.952 113.517 123.952 110.483ZM131.318 132.8V152.733H123.735V148.833C123.735 145.656 124.421 142.694 125.793 139.95C127.166 137.206 129.007 134.822 131.318 132.8ZM167.502 157.5C167.213 157.789 166.852 157.933 166.418 157.933C163.529 157.933 160.568 158.728 157.535 160.317C155.368 161.472 152.985 162.05 150.385 162.05H138.685C136.229 162.05 133.846 161.472 131.535 160.317C128.357 158.583 125.468 157.789 122.868 157.933C122.146 157.933 121.677 157.681 121.46 157.175C121.243 156.669 121.279 156.128 121.568 155.55C121.857 154.972 122.291 154.683 122.868 154.683H166.202C166.924 154.683 167.466 155.008 167.827 155.658C168.188 156.308 168.079 156.922 167.502 157.5Z" fill="black"/>
</g>
</g>
<defs>
<filter id="filter0_d_17_1344" x="0" y="0" width="278" height="268" filterUnits="userSpaceOnUse" color-interpolation-filters="sRGB">
<feFlood flood-opacity="0" result="BackgroundImageFix"/>
<feColorMatrix in="SourceAlpha" type="matrix" values="0 0 0 0 0 0 0 0 0 0 0 0 0 0 0 0 0 0 127 0" result="hardAlpha"/>
<feOffset/>
<feGaussianBlur stdDeviation="29.5"/>
<feComposite in2="hardAlpha" operator="out"/>
<feColorMatrix type="matrix" values="0 0 0 0 0.768627 0 0 0 0 0.768627 0 0 0 0 0.768627 0 0 0 0.26 0"/>
<feBlend mode="normal" in2="BackgroundImageFix" result="effect1_dropShadow_17_1344"/>
<feBlend mode="normal" in="SourceGraphic" in2="effect1_dropShadow_17_1344" result="shape"/>
</filter>
<linearGradient id="paint0_linear_17_1344" x1="218.64" y1="208.8" x2="58.6396" y2="203.3" gradientUnits="userSpaceOnUse">
<stop stop-color="#E763F3"/>
<stop offset="1" stop-color="#EBA235"/>
</linearGradient>
<clipPath id="clip0_17_1344">
<rect width="65.02" height="65" fill="white" transform="matrix(1 0 0 -1 106.5 164)"/>
</clipPath>
</defs>
</svg>
