<svg width="17" height="18" viewBox="0 0 17 18" fill="none" xmlns="http://www.w3.org/2000/svg">
<path fill-rule="evenodd" clip-rule="evenodd" d="M4.86042 0.054C5.72442 0.0105 6.00015 0 8.19998 0C10.3998 0 10.6755 0.0105 11.5395 0.054C12.8565 0.12075 14.0124 0.47925 14.9405 1.5105C15.869 2.54212 16.1913 3.82687 16.2514 5.28937C16.2905 6.24937 16.3 6.55575 16.3 9C16.3 11.4443 16.2905 11.7506 16.2514 12.7106C16.1913 14.1739 15.8687 15.4583 14.9405 16.4895C14.0121 17.5211 12.8555 17.8792 11.5395 17.946C10.6755 17.9895 10.3998 18 8.19998 18C6.00015 18 5.72442 17.9895 4.86042 17.946C3.54349 17.8792 2.38755 17.5208 1.45943 16.4895C0.530963 15.4579 0.208651 14.1731 0.148576 12.7106C0.109426 11.7506 0.0999756 11.4443 0.0999756 9C0.0999756 6.55575 0.109426 6.24937 0.148576 5.28937C0.208651 3.82612 0.531301 2.54175 1.45943 1.5105C2.38789 0.478875 3.54417 0.12075 4.86042 0.054ZM11.4731 1.674C10.6188 1.6305 10.3627 1.6215 8.19998 1.6215C6.03728 1.6215 5.78112 1.63087 4.9269 1.674C4.00519 1.72087 3.14963 1.926 2.4915 2.65725C1.83338 3.3885 1.64876 4.33912 1.60658 5.36325C1.56743 6.31237 1.55933 6.597 1.55933 9C1.55933 11.403 1.56776 11.6876 1.60658 12.6368C1.64876 13.6609 1.83338 14.6115 2.4915 15.3428C3.14963 16.074 4.00519 16.2791 4.9269 16.326C5.78078 16.3695 6.03694 16.3785 8.19998 16.3785C10.363 16.3785 10.6192 16.3691 11.4731 16.326C12.3948 16.2791 13.2503 16.074 13.9085 15.3428C14.5666 14.6115 14.7512 13.6609 14.7934 12.6368C14.8325 11.6876 14.8406 11.403 14.8406 9C14.8406 6.597 14.8322 6.31237 14.7934 5.36325C14.7512 4.33912 14.5666 3.3885 13.9085 2.65725C13.2503 1.926 12.3948 1.72087 11.4731 1.674Z" fill="white"/>
<path fill-rule="evenodd" clip-rule="evenodd" d="M4.51807 9.40918C4.51807 6.92403 6.33111 4.90918 8.56808 4.90918C10.8051 4.90918 12.6181 6.92366 12.6181 9.40918C12.6181 11.8947 10.8051 13.9092 8.56808 13.9092C6.33111 13.9092 4.51807 11.8943 4.51807 9.40918ZM5.93909 9.40918C5.93909 11.0224 7.11622 12.3303 8.56808 12.3303C10.0199 12.3303 11.1971 11.0224 11.1971 9.40918C11.1971 7.79598 10.0199 6.48805 8.56808 6.48805C7.11622 6.48805 5.93909 7.79598 5.93909 9.40918Z" fill="white"/>
<ellipse cx="12.25" cy="4.49998" rx="1.10452" ry="1.22727" fill="white"/>
</svg>
