<svg width="31" height="74" viewBox="0 0 31 74" fill="none" xmlns="http://www.w3.org/2000/svg">
<mask id="mask0_17_1293" style="mask-type:luminance" maskUnits="userSpaceOnUse" x="0" y="0" width="31" height="74">
<path d="M29.0384 63.779C33.9847 53.0717 31.3643 27.1089 0 1.20401e-05C22.4507 21.2795 12.3524 41.9038 5.51901 53.0044C-2.68251 66.3181 18.5825 86.3967 29.0384 63.779Z" fill="white"/>
</mask>
<g mask="url(#mask0_17_1293)">
<path d="M29.0384 63.779C33.9847 53.0717 31.3643 27.1089 0 1.20401e-05C22.4507 21.2795 12.3524 41.9038 5.51901 53.0044C-2.68251 66.3181 18.5825 86.3967 29.0384 63.779Z" fill="url(#paint0_radial_17_1293)"/>
</g>
<mask id="mask1_17_1293" style="mask-type:luminance" maskUnits="userSpaceOnUse" x="0" y="0" width="31" height="74">
<path d="M29.0384 63.7789C33.9847 53.0715 31.3643 27.1088 0 -0.000125298C22.4507 21.2794 15.6876 41.3175 8.85672 52.4181C0.655203 65.7321 18.5825 86.3965 29.0384 63.7789Z" fill="white"/>
</mask>
<g mask="url(#mask1_17_1293)">
<path d="M29.0384 63.7789C33.9847 53.0715 31.3643 27.1088 0 -0.000125298C22.4507 21.2794 15.6876 41.3175 8.85672 52.4181C0.655203 65.7321 18.5825 86.3965 29.0384 63.7789Z" fill="url(#paint1_radial_17_1293)"/>
</g>
<defs>
<radialGradient id="paint0_radial_17_1293" cx="0" cy="0" r="1" gradientUnits="userSpaceOnUse" gradientTransform="translate(11.6022 36.2816) rotate(164.329) scale(26.9127 29.3819)">
<stop stop-color="#F9FFA1"/>
<stop offset="0.121526" stop-color="#FFF060"/>
<stop offset="0.46034" stop-color="#F2DB00"/>
<stop offset="0.927083" stop-color="#F0C200"/>
<stop offset="1" stop-color="#E7A300"/>
</radialGradient>
<radialGradient id="paint1_radial_17_1293" cx="0" cy="0" r="1" gradientUnits="userSpaceOnUse" gradientTransform="translate(8.5 4.99989) rotate(78.9298) scale(70.3082 71.1252)">
<stop stop-color="#E763F3"/>
<stop offset="1" stop-color="#E7A300"/>
</radialGradient>
</defs>
</svg>

